%TF.GenerationSoftware,KiCad,Pcbnew,10.0.6*%
%TF.CreationDate,2026-10-07T16:02:26-07:00*%
%TF.ProjectId,rf-combiner-test,72662d63-6f6d-4626-996e-65722d746573,rev?*%
%TF.SameCoordinates,Original*%
%TF.FileFunction,Soldermask,Bot*%
%TF.FilePolarity,Negative*%
%FSLAX46Y46*%
G04 Gerber Fmt 4.6, Leading zero omitted, Abs format (unit mm)*
G04 Created by KiCad (PCBNEW 10.0.6) date 2026-10-07 16:02:26*
%MOMM*%
%LPD*%
G01*
G04 APERTURE LIST*
G04 APERTURE END LIST*
G36*
X37303334Y-29715080D02*
G01*
X37313408Y-29715080D01*
X37352771Y-29722909D01*
X37456245Y-29739298D01*
X37489529Y-29750112D01*
X37516250Y-29755428D01*
X37553959Y-29771047D01*
X37613676Y-29790451D01*
X37669617Y-29818954D01*
X37707324Y-29834573D01*
X37729975Y-29849708D01*
X37761151Y-29865593D01*
X37845895Y-29927163D01*
X37879285Y-29949474D01*
X37886411Y-29956600D01*
X37895064Y-29962887D01*
X38012112Y-30079935D01*
X38018398Y-30088587D01*
X38025526Y-30095715D01*
X38047839Y-30129109D01*
X38109406Y-30213848D01*
X38125289Y-30245021D01*
X38140427Y-30267676D01*
X38156047Y-30305387D01*
X38184548Y-30361323D01*
X38203949Y-30421032D01*
X38219572Y-30458750D01*
X38224888Y-30485475D01*
X38235701Y-30518754D01*
X38252088Y-30622222D01*
X38259920Y-30661592D01*
X38259920Y-30671665D01*
X38261594Y-30682235D01*
X38261594Y-30847764D01*
X38259920Y-30858333D01*
X38259920Y-30868408D01*
X38252088Y-30907780D01*
X38235701Y-31011245D01*
X38224888Y-31044521D01*
X38219572Y-31071250D01*
X38203947Y-31108970D01*
X38184548Y-31168676D01*
X38156049Y-31224607D01*
X38140427Y-31262324D01*
X38125287Y-31284982D01*
X38109406Y-31316151D01*
X38047847Y-31400877D01*
X38025526Y-31434285D01*
X38018395Y-31441415D01*
X38012112Y-31450064D01*
X37895064Y-31567112D01*
X37886415Y-31573395D01*
X37879285Y-31580526D01*
X37845877Y-31602847D01*
X37761151Y-31664406D01*
X37729982Y-31680287D01*
X37707324Y-31695427D01*
X37669607Y-31711049D01*
X37613676Y-31739548D01*
X37553970Y-31758947D01*
X37516250Y-31774572D01*
X37489521Y-31779888D01*
X37456245Y-31790701D01*
X37352780Y-31807088D01*
X37313408Y-31814920D01*
X37303333Y-31814920D01*
X37292764Y-31816594D01*
X37127236Y-31816594D01*
X37116667Y-31814920D01*
X37106592Y-31814920D01*
X37067220Y-31807088D01*
X36963754Y-31790701D01*
X36930475Y-31779888D01*
X36903750Y-31774572D01*
X36866032Y-31758949D01*
X36806323Y-31739548D01*
X36750387Y-31711047D01*
X36712676Y-31695427D01*
X36690021Y-31680289D01*
X36658848Y-31664406D01*
X36574109Y-31602839D01*
X36540715Y-31580526D01*
X36533587Y-31573398D01*
X36524935Y-31567112D01*
X36407887Y-31450064D01*
X36401600Y-31441411D01*
X36394474Y-31434285D01*
X36372163Y-31400895D01*
X36310593Y-31316151D01*
X36294708Y-31284975D01*
X36279573Y-31262324D01*
X36263954Y-31224617D01*
X36235451Y-31168676D01*
X36216047Y-31108959D01*
X36200428Y-31071250D01*
X36195112Y-31044529D01*
X36184298Y-31011245D01*
X36167909Y-30907771D01*
X36160080Y-30868408D01*
X36160080Y-30858333D01*
X36158406Y-30847764D01*
X36158406Y-30682235D01*
X36160080Y-30671665D01*
X36160080Y-30661592D01*
X36167909Y-30622232D01*
X36184298Y-30518754D01*
X36195113Y-30485467D01*
X36200428Y-30458750D01*
X36216046Y-30421043D01*
X36235451Y-30361323D01*
X36263956Y-30305376D01*
X36279573Y-30267676D01*
X36294706Y-30245027D01*
X36310593Y-30213848D01*
X36372171Y-30129092D01*
X36394474Y-30095715D01*
X36401598Y-30088590D01*
X36407887Y-30079935D01*
X36524935Y-29962887D01*
X36533590Y-29956598D01*
X36540715Y-29949474D01*
X36574092Y-29927171D01*
X36658848Y-29865593D01*
X36690027Y-29849706D01*
X36712676Y-29834573D01*
X36750376Y-29818956D01*
X36806323Y-29790451D01*
X36866043Y-29771046D01*
X36903750Y-29755428D01*
X36930467Y-29750113D01*
X36963754Y-29739298D01*
X37067229Y-29722909D01*
X37106592Y-29715080D01*
X37116666Y-29715080D01*
X37127236Y-29713406D01*
X37292764Y-29713406D01*
X37303334Y-29715080D01*
G37*
G36*
X2883334Y-21715080D02*
G01*
X2893408Y-21715080D01*
X2932771Y-21722909D01*
X3036245Y-21739298D01*
X3069529Y-21750112D01*
X3096250Y-21755428D01*
X3133959Y-21771047D01*
X3193676Y-21790451D01*
X3249617Y-21818954D01*
X3287324Y-21834573D01*
X3309975Y-21849708D01*
X3341151Y-21865593D01*
X3425895Y-21927163D01*
X3459285Y-21949474D01*
X3466411Y-21956600D01*
X3475064Y-21962887D01*
X3592112Y-22079935D01*
X3598398Y-22088587D01*
X3605526Y-22095715D01*
X3627839Y-22129109D01*
X3689406Y-22213848D01*
X3705289Y-22245021D01*
X3720427Y-22267676D01*
X3736047Y-22305387D01*
X3764548Y-22361323D01*
X3783949Y-22421032D01*
X3799572Y-22458750D01*
X3804888Y-22485475D01*
X3815701Y-22518754D01*
X3832088Y-22622222D01*
X3839920Y-22661592D01*
X3839920Y-22671665D01*
X3841594Y-22682235D01*
X3841594Y-22847764D01*
X3839920Y-22858333D01*
X3839920Y-22868408D01*
X3832088Y-22907780D01*
X3815701Y-23011245D01*
X3804888Y-23044521D01*
X3799572Y-23071250D01*
X3783947Y-23108970D01*
X3764548Y-23168676D01*
X3736049Y-23224607D01*
X3720427Y-23262324D01*
X3705287Y-23284982D01*
X3689406Y-23316151D01*
X3627847Y-23400877D01*
X3605526Y-23434285D01*
X3598395Y-23441415D01*
X3592112Y-23450064D01*
X3475064Y-23567112D01*
X3466415Y-23573395D01*
X3459285Y-23580526D01*
X3425877Y-23602847D01*
X3341151Y-23664406D01*
X3309982Y-23680287D01*
X3287324Y-23695427D01*
X3249607Y-23711049D01*
X3193676Y-23739548D01*
X3133970Y-23758947D01*
X3096250Y-23774572D01*
X3069521Y-23779888D01*
X3036245Y-23790701D01*
X2932780Y-23807088D01*
X2893408Y-23814920D01*
X2883333Y-23814920D01*
X2872764Y-23816594D01*
X2707236Y-23816594D01*
X2696667Y-23814920D01*
X2686592Y-23814920D01*
X2647220Y-23807088D01*
X2543754Y-23790701D01*
X2510475Y-23779888D01*
X2483750Y-23774572D01*
X2446032Y-23758949D01*
X2386323Y-23739548D01*
X2330387Y-23711047D01*
X2292676Y-23695427D01*
X2270021Y-23680289D01*
X2238848Y-23664406D01*
X2154109Y-23602839D01*
X2120715Y-23580526D01*
X2113587Y-23573398D01*
X2104935Y-23567112D01*
X1987887Y-23450064D01*
X1981600Y-23441411D01*
X1974474Y-23434285D01*
X1952163Y-23400895D01*
X1890593Y-23316151D01*
X1874708Y-23284975D01*
X1859573Y-23262324D01*
X1843954Y-23224617D01*
X1815451Y-23168676D01*
X1796047Y-23108959D01*
X1780428Y-23071250D01*
X1775112Y-23044529D01*
X1764298Y-23011245D01*
X1747909Y-22907771D01*
X1740080Y-22868408D01*
X1740080Y-22858333D01*
X1738406Y-22847764D01*
X1738406Y-22682235D01*
X1740080Y-22671665D01*
X1740080Y-22661592D01*
X1747909Y-22622232D01*
X1764298Y-22518754D01*
X1775113Y-22485467D01*
X1780428Y-22458750D01*
X1796046Y-22421043D01*
X1815451Y-22361323D01*
X1843956Y-22305376D01*
X1859573Y-22267676D01*
X1874706Y-22245027D01*
X1890593Y-22213848D01*
X1952171Y-22129092D01*
X1974474Y-22095715D01*
X1981598Y-22088590D01*
X1987887Y-22079935D01*
X2104935Y-21962887D01*
X2113590Y-21956598D01*
X2120715Y-21949474D01*
X2154092Y-21927171D01*
X2238848Y-21865593D01*
X2270027Y-21849706D01*
X2292676Y-21834573D01*
X2330376Y-21818956D01*
X2386323Y-21790451D01*
X2446043Y-21771046D01*
X2483750Y-21755428D01*
X2510467Y-21750113D01*
X2543754Y-21739298D01*
X2647229Y-21722909D01*
X2686592Y-21715080D01*
X2696666Y-21715080D01*
X2707236Y-21713406D01*
X2872764Y-21713406D01*
X2883334Y-21715080D01*
G37*
G36*
X37303334Y-20185080D02*
G01*
X37313408Y-20185080D01*
X37352771Y-20192909D01*
X37456245Y-20209298D01*
X37489529Y-20220112D01*
X37516250Y-20225428D01*
X37553959Y-20241047D01*
X37613676Y-20260451D01*
X37669617Y-20288954D01*
X37707324Y-20304573D01*
X37729975Y-20319708D01*
X37761151Y-20335593D01*
X37845895Y-20397163D01*
X37879285Y-20419474D01*
X37886411Y-20426600D01*
X37895064Y-20432887D01*
X38012112Y-20549935D01*
X38018398Y-20558587D01*
X38025526Y-20565715D01*
X38047839Y-20599109D01*
X38109406Y-20683848D01*
X38125289Y-20715021D01*
X38140427Y-20737676D01*
X38156047Y-20775387D01*
X38184548Y-20831323D01*
X38203949Y-20891032D01*
X38219572Y-20928750D01*
X38224888Y-20955475D01*
X38235701Y-20988754D01*
X38252088Y-21092222D01*
X38259920Y-21131592D01*
X38259920Y-21141665D01*
X38261594Y-21152235D01*
X38261594Y-21317764D01*
X38259920Y-21328333D01*
X38259920Y-21338408D01*
X38252088Y-21377780D01*
X38235701Y-21481245D01*
X38224888Y-21514521D01*
X38219572Y-21541250D01*
X38203947Y-21578970D01*
X38184548Y-21638676D01*
X38156049Y-21694607D01*
X38140427Y-21732324D01*
X38125287Y-21754982D01*
X38109406Y-21786151D01*
X38047847Y-21870877D01*
X38025526Y-21904285D01*
X38018395Y-21911415D01*
X38012112Y-21920064D01*
X37895064Y-22037112D01*
X37886415Y-22043395D01*
X37879285Y-22050526D01*
X37845877Y-22072847D01*
X37761151Y-22134406D01*
X37729982Y-22150287D01*
X37707324Y-22165427D01*
X37669607Y-22181049D01*
X37613676Y-22209548D01*
X37553970Y-22228947D01*
X37516250Y-22244572D01*
X37489521Y-22249888D01*
X37456245Y-22260701D01*
X37352780Y-22277088D01*
X37313408Y-22284920D01*
X37303333Y-22284920D01*
X37292764Y-22286594D01*
X37127236Y-22286594D01*
X37116667Y-22284920D01*
X37106592Y-22284920D01*
X37067220Y-22277088D01*
X36963754Y-22260701D01*
X36930475Y-22249888D01*
X36903750Y-22244572D01*
X36866032Y-22228949D01*
X36806323Y-22209548D01*
X36750387Y-22181047D01*
X36712676Y-22165427D01*
X36690021Y-22150289D01*
X36658848Y-22134406D01*
X36574109Y-22072839D01*
X36540715Y-22050526D01*
X36533587Y-22043398D01*
X36524935Y-22037112D01*
X36407887Y-21920064D01*
X36401600Y-21911411D01*
X36394474Y-21904285D01*
X36372163Y-21870895D01*
X36310593Y-21786151D01*
X36294708Y-21754975D01*
X36279573Y-21732324D01*
X36263954Y-21694617D01*
X36235451Y-21638676D01*
X36216047Y-21578959D01*
X36200428Y-21541250D01*
X36195112Y-21514529D01*
X36184298Y-21481245D01*
X36167909Y-21377771D01*
X36160080Y-21338408D01*
X36160080Y-21328333D01*
X36158406Y-21317764D01*
X36158406Y-21152235D01*
X36160080Y-21141665D01*
X36160080Y-21131592D01*
X36167909Y-21092232D01*
X36184298Y-20988754D01*
X36195113Y-20955467D01*
X36200428Y-20928750D01*
X36216046Y-20891043D01*
X36235451Y-20831323D01*
X36263956Y-20775376D01*
X36279573Y-20737676D01*
X36294706Y-20715027D01*
X36310593Y-20683848D01*
X36372171Y-20599092D01*
X36394474Y-20565715D01*
X36401598Y-20558590D01*
X36407887Y-20549935D01*
X36524935Y-20432887D01*
X36533590Y-20426598D01*
X36540715Y-20419474D01*
X36574092Y-20397171D01*
X36658848Y-20335593D01*
X36690027Y-20319706D01*
X36712676Y-20304573D01*
X36750376Y-20288956D01*
X36806323Y-20260451D01*
X36866043Y-20241046D01*
X36903750Y-20225428D01*
X36930467Y-20220113D01*
X36963754Y-20209298D01*
X37067229Y-20192909D01*
X37106592Y-20185080D01*
X37116666Y-20185080D01*
X37127236Y-20183406D01*
X37292764Y-20183406D01*
X37303334Y-20185080D01*
G37*
G36*
X37303334Y-13715080D02*
G01*
X37313408Y-13715080D01*
X37352771Y-13722909D01*
X37456245Y-13739298D01*
X37489529Y-13750112D01*
X37516250Y-13755428D01*
X37553959Y-13771047D01*
X37613676Y-13790451D01*
X37669617Y-13818954D01*
X37707324Y-13834573D01*
X37729975Y-13849708D01*
X37761151Y-13865593D01*
X37845895Y-13927163D01*
X37879285Y-13949474D01*
X37886411Y-13956600D01*
X37895064Y-13962887D01*
X38012112Y-14079935D01*
X38018398Y-14088587D01*
X38025526Y-14095715D01*
X38047839Y-14129109D01*
X38109406Y-14213848D01*
X38125289Y-14245021D01*
X38140427Y-14267676D01*
X38156047Y-14305387D01*
X38184548Y-14361323D01*
X38203949Y-14421032D01*
X38219572Y-14458750D01*
X38224888Y-14485475D01*
X38235701Y-14518754D01*
X38252088Y-14622222D01*
X38259920Y-14661592D01*
X38259920Y-14671665D01*
X38261594Y-14682235D01*
X38261594Y-14847764D01*
X38259920Y-14858333D01*
X38259920Y-14868408D01*
X38252088Y-14907780D01*
X38235701Y-15011245D01*
X38224888Y-15044521D01*
X38219572Y-15071250D01*
X38203947Y-15108970D01*
X38184548Y-15168676D01*
X38156049Y-15224607D01*
X38140427Y-15262324D01*
X38125287Y-15284982D01*
X38109406Y-15316151D01*
X38047847Y-15400877D01*
X38025526Y-15434285D01*
X38018395Y-15441415D01*
X38012112Y-15450064D01*
X37895064Y-15567112D01*
X37886415Y-15573395D01*
X37879285Y-15580526D01*
X37845877Y-15602847D01*
X37761151Y-15664406D01*
X37729982Y-15680287D01*
X37707324Y-15695427D01*
X37669607Y-15711049D01*
X37613676Y-15739548D01*
X37553970Y-15758947D01*
X37516250Y-15774572D01*
X37489521Y-15779888D01*
X37456245Y-15790701D01*
X37352780Y-15807088D01*
X37313408Y-15814920D01*
X37303333Y-15814920D01*
X37292764Y-15816594D01*
X37127236Y-15816594D01*
X37116667Y-15814920D01*
X37106592Y-15814920D01*
X37067220Y-15807088D01*
X36963754Y-15790701D01*
X36930475Y-15779888D01*
X36903750Y-15774572D01*
X36866032Y-15758949D01*
X36806323Y-15739548D01*
X36750387Y-15711047D01*
X36712676Y-15695427D01*
X36690021Y-15680289D01*
X36658848Y-15664406D01*
X36574109Y-15602839D01*
X36540715Y-15580526D01*
X36533587Y-15573398D01*
X36524935Y-15567112D01*
X36407887Y-15450064D01*
X36401600Y-15441411D01*
X36394474Y-15434285D01*
X36372163Y-15400895D01*
X36310593Y-15316151D01*
X36294708Y-15284975D01*
X36279573Y-15262324D01*
X36263954Y-15224617D01*
X36235451Y-15168676D01*
X36216047Y-15108959D01*
X36200428Y-15071250D01*
X36195112Y-15044529D01*
X36184298Y-15011245D01*
X36167909Y-14907771D01*
X36160080Y-14868408D01*
X36160080Y-14858333D01*
X36158406Y-14847764D01*
X36158406Y-14682235D01*
X36160080Y-14671665D01*
X36160080Y-14661592D01*
X36167909Y-14622232D01*
X36184298Y-14518754D01*
X36195113Y-14485467D01*
X36200428Y-14458750D01*
X36216046Y-14421043D01*
X36235451Y-14361323D01*
X36263956Y-14305376D01*
X36279573Y-14267676D01*
X36294706Y-14245027D01*
X36310593Y-14213848D01*
X36372171Y-14129092D01*
X36394474Y-14095715D01*
X36401598Y-14088590D01*
X36407887Y-14079935D01*
X36524935Y-13962887D01*
X36533590Y-13956598D01*
X36540715Y-13949474D01*
X36574092Y-13927171D01*
X36658848Y-13865593D01*
X36690027Y-13849706D01*
X36712676Y-13834573D01*
X36750376Y-13818956D01*
X36806323Y-13790451D01*
X36866043Y-13771046D01*
X36903750Y-13755428D01*
X36930467Y-13750113D01*
X36963754Y-13739298D01*
X37067229Y-13722909D01*
X37106592Y-13715080D01*
X37116666Y-13715080D01*
X37127236Y-13713406D01*
X37292764Y-13713406D01*
X37303334Y-13715080D01*
G37*
G36*
X2883334Y-12185080D02*
G01*
X2893408Y-12185080D01*
X2932771Y-12192909D01*
X3036245Y-12209298D01*
X3069529Y-12220112D01*
X3096250Y-12225428D01*
X3133959Y-12241047D01*
X3193676Y-12260451D01*
X3249617Y-12288954D01*
X3287324Y-12304573D01*
X3309975Y-12319708D01*
X3341151Y-12335593D01*
X3425895Y-12397163D01*
X3459285Y-12419474D01*
X3466411Y-12426600D01*
X3475064Y-12432887D01*
X3592112Y-12549935D01*
X3598398Y-12558587D01*
X3605526Y-12565715D01*
X3627839Y-12599109D01*
X3689406Y-12683848D01*
X3705289Y-12715021D01*
X3720427Y-12737676D01*
X3736047Y-12775387D01*
X3764548Y-12831323D01*
X3783949Y-12891032D01*
X3799572Y-12928750D01*
X3804888Y-12955475D01*
X3815701Y-12988754D01*
X3832088Y-13092222D01*
X3839920Y-13131592D01*
X3839920Y-13141665D01*
X3841594Y-13152235D01*
X3841594Y-13317764D01*
X3839920Y-13328333D01*
X3839920Y-13338408D01*
X3832088Y-13377780D01*
X3815701Y-13481245D01*
X3804888Y-13514521D01*
X3799572Y-13541250D01*
X3783947Y-13578970D01*
X3764548Y-13638676D01*
X3736049Y-13694607D01*
X3720427Y-13732324D01*
X3705287Y-13754982D01*
X3689406Y-13786151D01*
X3627847Y-13870877D01*
X3605526Y-13904285D01*
X3598395Y-13911415D01*
X3592112Y-13920064D01*
X3475064Y-14037112D01*
X3466415Y-14043395D01*
X3459285Y-14050526D01*
X3425877Y-14072847D01*
X3341151Y-14134406D01*
X3309982Y-14150287D01*
X3287324Y-14165427D01*
X3249607Y-14181049D01*
X3193676Y-14209548D01*
X3133970Y-14228947D01*
X3096250Y-14244572D01*
X3069521Y-14249888D01*
X3036245Y-14260701D01*
X2932780Y-14277088D01*
X2893408Y-14284920D01*
X2883333Y-14284920D01*
X2872764Y-14286594D01*
X2707236Y-14286594D01*
X2696667Y-14284920D01*
X2686592Y-14284920D01*
X2647220Y-14277088D01*
X2543754Y-14260701D01*
X2510475Y-14249888D01*
X2483750Y-14244572D01*
X2446032Y-14228949D01*
X2386323Y-14209548D01*
X2330387Y-14181047D01*
X2292676Y-14165427D01*
X2270021Y-14150289D01*
X2238848Y-14134406D01*
X2154109Y-14072839D01*
X2120715Y-14050526D01*
X2113587Y-14043398D01*
X2104935Y-14037112D01*
X1987887Y-13920064D01*
X1981600Y-13911411D01*
X1974474Y-13904285D01*
X1952163Y-13870895D01*
X1890593Y-13786151D01*
X1874708Y-13754975D01*
X1859573Y-13732324D01*
X1843954Y-13694617D01*
X1815451Y-13638676D01*
X1796047Y-13578959D01*
X1780428Y-13541250D01*
X1775112Y-13514529D01*
X1764298Y-13481245D01*
X1747909Y-13377771D01*
X1740080Y-13338408D01*
X1740080Y-13328333D01*
X1738406Y-13317764D01*
X1738406Y-13152235D01*
X1740080Y-13141665D01*
X1740080Y-13131592D01*
X1747909Y-13092232D01*
X1764298Y-12988754D01*
X1775113Y-12955467D01*
X1780428Y-12928750D01*
X1796046Y-12891043D01*
X1815451Y-12831323D01*
X1843956Y-12775376D01*
X1859573Y-12737676D01*
X1874706Y-12715027D01*
X1890593Y-12683848D01*
X1952171Y-12599092D01*
X1974474Y-12565715D01*
X1981598Y-12558590D01*
X1987887Y-12549935D01*
X2104935Y-12432887D01*
X2113590Y-12426598D01*
X2120715Y-12419474D01*
X2154092Y-12397171D01*
X2238848Y-12335593D01*
X2270027Y-12319706D01*
X2292676Y-12304573D01*
X2330376Y-12288956D01*
X2386323Y-12260451D01*
X2446043Y-12241046D01*
X2483750Y-12225428D01*
X2510467Y-12220113D01*
X2543754Y-12209298D01*
X2647229Y-12192909D01*
X2686592Y-12185080D01*
X2696666Y-12185080D01*
X2707236Y-12183406D01*
X2872764Y-12183406D01*
X2883334Y-12185080D01*
G37*
G36*
X37303334Y-4185080D02*
G01*
X37313408Y-4185080D01*
X37352771Y-4192909D01*
X37456245Y-4209298D01*
X37489529Y-4220112D01*
X37516250Y-4225428D01*
X37553959Y-4241047D01*
X37613676Y-4260451D01*
X37669617Y-4288954D01*
X37707324Y-4304573D01*
X37729975Y-4319708D01*
X37761151Y-4335593D01*
X37845895Y-4397163D01*
X37879285Y-4419474D01*
X37886411Y-4426600D01*
X37895064Y-4432887D01*
X38012112Y-4549935D01*
X38018398Y-4558587D01*
X38025526Y-4565715D01*
X38047839Y-4599109D01*
X38109406Y-4683848D01*
X38125289Y-4715021D01*
X38140427Y-4737676D01*
X38156047Y-4775387D01*
X38184548Y-4831323D01*
X38203949Y-4891032D01*
X38219572Y-4928750D01*
X38224888Y-4955475D01*
X38235701Y-4988754D01*
X38252088Y-5092222D01*
X38259920Y-5131592D01*
X38259920Y-5141665D01*
X38261594Y-5152235D01*
X38261594Y-5317764D01*
X38259920Y-5328333D01*
X38259920Y-5338408D01*
X38252088Y-5377780D01*
X38235701Y-5481245D01*
X38224888Y-5514521D01*
X38219572Y-5541250D01*
X38203947Y-5578970D01*
X38184548Y-5638676D01*
X38156049Y-5694607D01*
X38140427Y-5732324D01*
X38125287Y-5754982D01*
X38109406Y-5786151D01*
X38047847Y-5870877D01*
X38025526Y-5904285D01*
X38018395Y-5911415D01*
X38012112Y-5920064D01*
X37895064Y-6037112D01*
X37886415Y-6043395D01*
X37879285Y-6050526D01*
X37845877Y-6072847D01*
X37761151Y-6134406D01*
X37729982Y-6150287D01*
X37707324Y-6165427D01*
X37669607Y-6181049D01*
X37613676Y-6209548D01*
X37553970Y-6228947D01*
X37516250Y-6244572D01*
X37489521Y-6249888D01*
X37456245Y-6260701D01*
X37352780Y-6277088D01*
X37313408Y-6284920D01*
X37303333Y-6284920D01*
X37292764Y-6286594D01*
X37127236Y-6286594D01*
X37116667Y-6284920D01*
X37106592Y-6284920D01*
X37067220Y-6277088D01*
X36963754Y-6260701D01*
X36930475Y-6249888D01*
X36903750Y-6244572D01*
X36866032Y-6228949D01*
X36806323Y-6209548D01*
X36750387Y-6181047D01*
X36712676Y-6165427D01*
X36690021Y-6150289D01*
X36658848Y-6134406D01*
X36574109Y-6072839D01*
X36540715Y-6050526D01*
X36533587Y-6043398D01*
X36524935Y-6037112D01*
X36407887Y-5920064D01*
X36401600Y-5911411D01*
X36394474Y-5904285D01*
X36372163Y-5870895D01*
X36310593Y-5786151D01*
X36294708Y-5754975D01*
X36279573Y-5732324D01*
X36263954Y-5694617D01*
X36235451Y-5638676D01*
X36216047Y-5578959D01*
X36200428Y-5541250D01*
X36195112Y-5514529D01*
X36184298Y-5481245D01*
X36167909Y-5377771D01*
X36160080Y-5338408D01*
X36160080Y-5328333D01*
X36158406Y-5317764D01*
X36158406Y-5152235D01*
X36160080Y-5141665D01*
X36160080Y-5131592D01*
X36167909Y-5092232D01*
X36184298Y-4988754D01*
X36195113Y-4955467D01*
X36200428Y-4928750D01*
X36216046Y-4891043D01*
X36235451Y-4831323D01*
X36263956Y-4775376D01*
X36279573Y-4737676D01*
X36294706Y-4715027D01*
X36310593Y-4683848D01*
X36372171Y-4599092D01*
X36394474Y-4565715D01*
X36401598Y-4558590D01*
X36407887Y-4549935D01*
X36524935Y-4432887D01*
X36533590Y-4426598D01*
X36540715Y-4419474D01*
X36574092Y-4397171D01*
X36658848Y-4335593D01*
X36690027Y-4319706D01*
X36712676Y-4304573D01*
X36750376Y-4288956D01*
X36806323Y-4260451D01*
X36866043Y-4241046D01*
X36903750Y-4225428D01*
X36930467Y-4220113D01*
X36963754Y-4209298D01*
X37067229Y-4192909D01*
X37106592Y-4185080D01*
X37116666Y-4185080D01*
X37127236Y-4183406D01*
X37292764Y-4183406D01*
X37303334Y-4185080D01*
G37*
M02*
