%TF.GenerationSoftware,KiCad,Pcbnew,10.0.6*%
%TF.CreationDate,2026-10-07T16:02:26-07:00*%
%TF.ProjectId,rf-combiner-test,72662d63-6f6d-4626-996e-65722d746573,rev?*%
%TF.SameCoordinates,Original*%
%TF.FileFunction,Copper,L2,Bot*%
%TF.FilePolarity,Positive*%
%FSLAX46Y46*%
G04 Gerber Fmt 4.6, Leading zero omitted, Abs format (unit mm)*
G04 Created by KiCad (PCBNEW 10.0.6) date 2026-10-07 16:02:26*
%MOMM*%
%LPD*%
G01*
G04 APERTURE LIST*
%TA.AperFunction,ViaPad*%
%ADD10C,0.800000*%
%TD*%
G04 APERTURE END LIST*
D10*
%TO.N,GND*%
X1300000Y-23650000D03*
X39350000Y-28250000D03*
X39350000Y-4350000D03*
X38700000Y-7750000D03*
X1300000Y-15750000D03*
X38700000Y-15650000D03*
X38700000Y-29100000D03*
X38700000Y-12250000D03*
X1300000Y-21100000D03*
X1300000Y-12350000D03*
X650000Y-14900000D03*
X39350000Y-13100000D03*
X650000Y-21100000D03*
X38700000Y-28250000D03*
X38700000Y-31650000D03*
X39350000Y-20350000D03*
X650000Y-12350000D03*
X38700000Y-4350000D03*
X38700000Y-22900000D03*
X38700000Y-23750000D03*
X1300000Y-20250000D03*
X650000Y-15750000D03*
X38700000Y-20350000D03*
X39350000Y-12250000D03*
X39350000Y-22900000D03*
X650000Y-23650000D03*
X39350000Y-23750000D03*
X38700000Y-13100000D03*
X39350000Y-29100000D03*
X650000Y-20250000D03*
X39350000Y-7750000D03*
X39350000Y-15650000D03*
X39350000Y-31650000D03*
X38700000Y-6900000D03*
X1300000Y-14900000D03*
X39350000Y-6900000D03*
%TD*%
%TA.AperFunction,Conductor*%
%TO.N,GND*%
G36*
X39827826Y-172174D02*
G01*
X39849500Y-224500D01*
X39849500Y-35775500D01*
X39827826Y-35827826D01*
X39775500Y-35849500D01*
X224500Y-35849500D01*
X172174Y-35827826D01*
X150500Y-35775500D01*
X150500Y-30664221D01*
X35929500Y-30664221D01*
X35929500Y-30865778D01*
X35961029Y-31064848D01*
X35961032Y-31064861D01*
X36023311Y-31256536D01*
X36023313Y-31256541D01*
X36023314Y-31256542D01*
X36114818Y-31436129D01*
X36233289Y-31599190D01*
X36375810Y-31741711D01*
X36538871Y-31860182D01*
X36718458Y-31951686D01*
X36718460Y-31951686D01*
X36718463Y-31951688D01*
X36910138Y-32013967D01*
X36910144Y-32013968D01*
X36910149Y-32013970D01*
X37042864Y-32034990D01*
X37109221Y-32045500D01*
X37109222Y-32045500D01*
X37310779Y-32045500D01*
X37360546Y-32037617D01*
X37509851Y-32013970D01*
X37509858Y-32013967D01*
X37509861Y-32013967D01*
X37701536Y-31951688D01*
X37701536Y-31951687D01*
X37701542Y-31951686D01*
X37881129Y-31860182D01*
X38044190Y-31741711D01*
X38186711Y-31599190D01*
X38305182Y-31436129D01*
X38396686Y-31256542D01*
X38458970Y-31064851D01*
X38490500Y-30865778D01*
X38490500Y-30664222D01*
X38458970Y-30465149D01*
X38458968Y-30465144D01*
X38458967Y-30465138D01*
X38396688Y-30273463D01*
X38396686Y-30273460D01*
X38396686Y-30273458D01*
X38305182Y-30093871D01*
X38186711Y-29930810D01*
X38044190Y-29788289D01*
X38044187Y-29788286D01*
X38044185Y-29788285D01*
X37881128Y-29669817D01*
X37701536Y-29578311D01*
X37509861Y-29516032D01*
X37509848Y-29516029D01*
X37310779Y-29484500D01*
X37310778Y-29484500D01*
X37109222Y-29484500D01*
X37109221Y-29484500D01*
X36910151Y-29516029D01*
X36910138Y-29516032D01*
X36718463Y-29578311D01*
X36538871Y-29669817D01*
X36375814Y-29788285D01*
X36233285Y-29930814D01*
X36114817Y-30093871D01*
X36023311Y-30273463D01*
X35961032Y-30465138D01*
X35961029Y-30465151D01*
X35929500Y-30664221D01*
X150500Y-30664221D01*
X150500Y-22664221D01*
X1509500Y-22664221D01*
X1509500Y-22865778D01*
X1541029Y-23064848D01*
X1541032Y-23064861D01*
X1603311Y-23256536D01*
X1603313Y-23256541D01*
X1603314Y-23256542D01*
X1694818Y-23436129D01*
X1813289Y-23599190D01*
X1955810Y-23741711D01*
X2118871Y-23860182D01*
X2298458Y-23951686D01*
X2298460Y-23951686D01*
X2298463Y-23951688D01*
X2490138Y-24013967D01*
X2490144Y-24013968D01*
X2490149Y-24013970D01*
X2622864Y-24034990D01*
X2689221Y-24045500D01*
X2689222Y-24045500D01*
X2890779Y-24045500D01*
X2940546Y-24037617D01*
X3089851Y-24013970D01*
X3089858Y-24013967D01*
X3089861Y-24013967D01*
X3281536Y-23951688D01*
X3281536Y-23951687D01*
X3281542Y-23951686D01*
X3461129Y-23860182D01*
X3624190Y-23741711D01*
X3766711Y-23599190D01*
X3885182Y-23436129D01*
X3976686Y-23256542D01*
X4038970Y-23064851D01*
X4070500Y-22865778D01*
X4070500Y-22664222D01*
X4038970Y-22465149D01*
X4038968Y-22465144D01*
X4038967Y-22465138D01*
X3976688Y-22273463D01*
X3976686Y-22273460D01*
X3976686Y-22273458D01*
X3885182Y-22093871D01*
X3766711Y-21930810D01*
X3624190Y-21788289D01*
X3624187Y-21788286D01*
X3624185Y-21788285D01*
X3461128Y-21669817D01*
X3281536Y-21578311D01*
X3089861Y-21516032D01*
X3089848Y-21516029D01*
X2890779Y-21484500D01*
X2890778Y-21484500D01*
X2689222Y-21484500D01*
X2689221Y-21484500D01*
X2490151Y-21516029D01*
X2490138Y-21516032D01*
X2298463Y-21578311D01*
X2118871Y-21669817D01*
X1955814Y-21788285D01*
X1813285Y-21930814D01*
X1694817Y-22093871D01*
X1603311Y-22273463D01*
X1541032Y-22465138D01*
X1541029Y-22465151D01*
X1509500Y-22664221D01*
X150500Y-22664221D01*
X150500Y-21134221D01*
X35929500Y-21134221D01*
X35929500Y-21335778D01*
X35961029Y-21534848D01*
X35961032Y-21534861D01*
X36023311Y-21726536D01*
X36114817Y-21906128D01*
X36132752Y-21930814D01*
X36233289Y-22069190D01*
X36375810Y-22211711D01*
X36538871Y-22330182D01*
X36718458Y-22421686D01*
X36718460Y-22421686D01*
X36718463Y-22421688D01*
X36910138Y-22483967D01*
X36910144Y-22483968D01*
X36910149Y-22483970D01*
X37042864Y-22504990D01*
X37109221Y-22515500D01*
X37109222Y-22515500D01*
X37310779Y-22515500D01*
X37360546Y-22507617D01*
X37509851Y-22483970D01*
X37509858Y-22483967D01*
X37509861Y-22483967D01*
X37701536Y-22421688D01*
X37701536Y-22421687D01*
X37701542Y-22421686D01*
X37881129Y-22330182D01*
X38044190Y-22211711D01*
X38186711Y-22069190D01*
X38305182Y-21906129D01*
X38396686Y-21726542D01*
X38458970Y-21534851D01*
X38490500Y-21335778D01*
X38490500Y-21134222D01*
X38458970Y-20935149D01*
X38458968Y-20935144D01*
X38458967Y-20935138D01*
X38396688Y-20743463D01*
X38396686Y-20743460D01*
X38396686Y-20743458D01*
X38305182Y-20563871D01*
X38186711Y-20400810D01*
X38044190Y-20258289D01*
X38044187Y-20258286D01*
X38044185Y-20258285D01*
X37881128Y-20139817D01*
X37701536Y-20048311D01*
X37509861Y-19986032D01*
X37509848Y-19986029D01*
X37310779Y-19954500D01*
X37310778Y-19954500D01*
X37109222Y-19954500D01*
X37109221Y-19954500D01*
X36910151Y-19986029D01*
X36910138Y-19986032D01*
X36718463Y-20048311D01*
X36538871Y-20139817D01*
X36375814Y-20258285D01*
X36233285Y-20400814D01*
X36114817Y-20563871D01*
X36023311Y-20743463D01*
X35961032Y-20935138D01*
X35961029Y-20935151D01*
X35929500Y-21134221D01*
X150500Y-21134221D01*
X150500Y-14664221D01*
X35929500Y-14664221D01*
X35929500Y-14865778D01*
X35961029Y-15064848D01*
X35961032Y-15064861D01*
X36023311Y-15256536D01*
X36023313Y-15256541D01*
X36023314Y-15256542D01*
X36114818Y-15436129D01*
X36233289Y-15599190D01*
X36375810Y-15741711D01*
X36538871Y-15860182D01*
X36718458Y-15951686D01*
X36718460Y-15951686D01*
X36718463Y-15951688D01*
X36910138Y-16013967D01*
X36910144Y-16013968D01*
X36910149Y-16013970D01*
X37042864Y-16034990D01*
X37109221Y-16045500D01*
X37109222Y-16045500D01*
X37310779Y-16045500D01*
X37360546Y-16037617D01*
X37509851Y-16013970D01*
X37509858Y-16013967D01*
X37509861Y-16013967D01*
X37701536Y-15951688D01*
X37701536Y-15951687D01*
X37701542Y-15951686D01*
X37881129Y-15860182D01*
X38044190Y-15741711D01*
X38186711Y-15599190D01*
X38305182Y-15436129D01*
X38396686Y-15256542D01*
X38458970Y-15064851D01*
X38490500Y-14865778D01*
X38490500Y-14664222D01*
X38458970Y-14465149D01*
X38458968Y-14465144D01*
X38458967Y-14465138D01*
X38396688Y-14273463D01*
X38396686Y-14273460D01*
X38396686Y-14273458D01*
X38305182Y-14093871D01*
X38186711Y-13930810D01*
X38044190Y-13788289D01*
X38044187Y-13788286D01*
X38044185Y-13788285D01*
X37881128Y-13669817D01*
X37701536Y-13578311D01*
X37509861Y-13516032D01*
X37509848Y-13516029D01*
X37310779Y-13484500D01*
X37310778Y-13484500D01*
X37109222Y-13484500D01*
X37109221Y-13484500D01*
X36910151Y-13516029D01*
X36910138Y-13516032D01*
X36718463Y-13578311D01*
X36538871Y-13669817D01*
X36375814Y-13788285D01*
X36233285Y-13930814D01*
X36114817Y-14093871D01*
X36023311Y-14273463D01*
X35961032Y-14465138D01*
X35961029Y-14465151D01*
X35929500Y-14664221D01*
X150500Y-14664221D01*
X150500Y-13134221D01*
X1509500Y-13134221D01*
X1509500Y-13335778D01*
X1541029Y-13534848D01*
X1541032Y-13534861D01*
X1603311Y-13726536D01*
X1694817Y-13906128D01*
X1712752Y-13930814D01*
X1813289Y-14069190D01*
X1955810Y-14211711D01*
X2118871Y-14330182D01*
X2298458Y-14421686D01*
X2298460Y-14421686D01*
X2298463Y-14421688D01*
X2490138Y-14483967D01*
X2490144Y-14483968D01*
X2490149Y-14483970D01*
X2622864Y-14504990D01*
X2689221Y-14515500D01*
X2689222Y-14515500D01*
X2890779Y-14515500D01*
X2940546Y-14507617D01*
X3089851Y-14483970D01*
X3089858Y-14483967D01*
X3089861Y-14483967D01*
X3281536Y-14421688D01*
X3281536Y-14421687D01*
X3281542Y-14421686D01*
X3461129Y-14330182D01*
X3624190Y-14211711D01*
X3766711Y-14069190D01*
X3885182Y-13906129D01*
X3976686Y-13726542D01*
X4038970Y-13534851D01*
X4070500Y-13335778D01*
X4070500Y-13134222D01*
X4038970Y-12935149D01*
X4038968Y-12935144D01*
X4038967Y-12935138D01*
X3976688Y-12743463D01*
X3976686Y-12743460D01*
X3976686Y-12743458D01*
X3885182Y-12563871D01*
X3766711Y-12400810D01*
X3624190Y-12258289D01*
X3624187Y-12258286D01*
X3624185Y-12258285D01*
X3461128Y-12139817D01*
X3281536Y-12048311D01*
X3089861Y-11986032D01*
X3089848Y-11986029D01*
X2890779Y-11954500D01*
X2890778Y-11954500D01*
X2689222Y-11954500D01*
X2689221Y-11954500D01*
X2490151Y-11986029D01*
X2490138Y-11986032D01*
X2298463Y-12048311D01*
X2118871Y-12139817D01*
X1955814Y-12258285D01*
X1813285Y-12400814D01*
X1694817Y-12563871D01*
X1603311Y-12743463D01*
X1541032Y-12935138D01*
X1541029Y-12935151D01*
X1509500Y-13134221D01*
X150500Y-13134221D01*
X150500Y-5134221D01*
X35929500Y-5134221D01*
X35929500Y-5335778D01*
X35961029Y-5534848D01*
X35961032Y-5534861D01*
X36023311Y-5726536D01*
X36023313Y-5726541D01*
X36023314Y-5726542D01*
X36114818Y-5906129D01*
X36233289Y-6069190D01*
X36375810Y-6211711D01*
X36538871Y-6330182D01*
X36718458Y-6421686D01*
X36718460Y-6421686D01*
X36718463Y-6421688D01*
X36910138Y-6483967D01*
X36910144Y-6483968D01*
X36910149Y-6483970D01*
X37042864Y-6504990D01*
X37109221Y-6515500D01*
X37109222Y-6515500D01*
X37310779Y-6515500D01*
X37360546Y-6507617D01*
X37509851Y-6483970D01*
X37509858Y-6483967D01*
X37509861Y-6483967D01*
X37701536Y-6421688D01*
X37701536Y-6421687D01*
X37701542Y-6421686D01*
X37881129Y-6330182D01*
X38044190Y-6211711D01*
X38186711Y-6069190D01*
X38305182Y-5906129D01*
X38396686Y-5726542D01*
X38458970Y-5534851D01*
X38490500Y-5335778D01*
X38490500Y-5134222D01*
X38458970Y-4935149D01*
X38458968Y-4935144D01*
X38458967Y-4935138D01*
X38396688Y-4743463D01*
X38396686Y-4743460D01*
X38396686Y-4743458D01*
X38305182Y-4563871D01*
X38186711Y-4400810D01*
X38044190Y-4258289D01*
X38044187Y-4258286D01*
X38044185Y-4258285D01*
X37881128Y-4139817D01*
X37701536Y-4048311D01*
X37509861Y-3986032D01*
X37509848Y-3986029D01*
X37310779Y-3954500D01*
X37310778Y-3954500D01*
X37109222Y-3954500D01*
X37109221Y-3954500D01*
X36910151Y-3986029D01*
X36910138Y-3986032D01*
X36718463Y-4048311D01*
X36538871Y-4139817D01*
X36375814Y-4258285D01*
X36233285Y-4400814D01*
X36114817Y-4563871D01*
X36023311Y-4743463D01*
X35961032Y-4935138D01*
X35961029Y-4935151D01*
X35929500Y-5134221D01*
X150500Y-5134221D01*
X150500Y-224500D01*
X172174Y-172174D01*
X224500Y-150500D01*
X39775500Y-150500D01*
X39827826Y-172174D01*
G37*
%TD.AperFunction*%
%TD*%
M02*
