M48
; DRILL file KiCad 10.0.6 date 2026-10-07T16:02:27
; FORMAT={-:-/ absolute / metric / decimal}
; #@! TF.CreationDate,2026-10-07T16:02:27-07:00
; #@! TF.GenerationSoftware,Kicad,Pcbnew,10.0.6
; #@! TF.FileFunction,Plated,1,2,PTH
FMAT,2
METRIC
; #@! TA.AperFunction,Plated,PTH,ViaDrill
T1C0.300
%
G90
G05
T1
X0.65Y-12.35
X0.65Y-14.9
X0.65Y-15.75
X0.65Y-20.25
X0.65Y-21.1
X0.65Y-23.65
X1.3Y-12.35
X1.3Y-14.9
X1.3Y-15.75
X1.3Y-20.25
X1.3Y-21.1
X1.3Y-23.65
X38.7Y-4.35
X38.7Y-6.9
X38.7Y-7.75
X38.7Y-12.25
X38.7Y-13.1
X38.7Y-15.65
X38.7Y-20.35
X38.7Y-22.9
X38.7Y-23.75
X38.7Y-28.25
X38.7Y-29.1
X38.7Y-31.65
X39.35Y-4.35
X39.35Y-6.9
X39.35Y-7.75
X39.35Y-12.25
X39.35Y-13.1
X39.35Y-15.65
X39.35Y-20.35
X39.35Y-22.9
X39.35Y-23.75
X39.35Y-28.25
X39.35Y-29.1
X39.35Y-31.65
M30
